<?xml version="1.0" encoding="UTF-8" standalone="no"?>
<!DOCTYPE svg PUBLIC "-//W3C//DTD SVG 1.1//EN"
 "http://www.w3.org/Graphics/SVG/1.1/DTD/svg11.dtd">
<!-- Generated by graphviz version 2.40.1 (20161225.0304)
 -->
<!-- Title: finite_state_machine Pages: 1 -->
<svg width="662pt" height="232pt"
 viewBox="0.00 0.00 662.06 232.02" xmlns="http://www.w3.org/2000/svg" xmlns:xlink="http://www.w3.org/1999/xlink">
<g id="graph0" class="graph" transform="scale(1 1) rotate(0) translate(4 228.0194)">
<title>finite_state_machine</title>
<polygon fill="#ffffff" stroke="transparent" points="-4,4 -4,-228.0194 658.0595,-228.0194 658.0595,4 -4,4"/>
<!-- secret_node -->
<!-- PRESENTING -->
<g id="node2" class="node">
<title>PRESENTING</title>
<ellipse fill="none" stroke="#000000" cx="110.6404" cy="-70.0404" rx="70.0809" ry="70.0809"/>
<text text-anchor="middle" x="110.6404" y="-65.8404" font-family="Times,serif" font-size="14.00" fill="#000000">PRESENTING</text>
</g>
<!-- secret_node&#45;&gt;PRESENTING -->
<g id="edge1" class="edge">
<title>secret_node&#45;&gt;PRESENTING</title>
<path fill="none" stroke="#000000" stroke-width="2" d="M3.6891,-70.0404C7.6984,-70.0404 17.7136,-70.0404 30.094,-70.0404"/>
<polygon fill="#000000" stroke="#000000" stroke-width="2" points="30.4604,-73.5405 40.4604,-70.0404 30.4603,-66.5405 30.4604,-73.5405"/>
</g>
<!-- EDITING -->
<g id="node3" class="node">
<title>EDITING</title>
<ellipse fill="none" stroke="#000000" cx="373.0065" cy="-139.0404" rx="50.3586" ry="50.3586"/>
<text text-anchor="middle" x="373.0065" y="-134.8404" font-family="Times,serif" font-size="14.00" fill="#000000">EDITING</text>
</g>
<!-- PRESENTING&#45;&gt;EDITING -->
<g id="edge2" class="edge">
<title>PRESENTING&#45;&gt;EDITING</title>
<path fill="none" stroke="#000000" d="M172.1313,-103.8512C180.8651,-107.7384 189.8739,-111.2876 198.6809,-114.0404 235.5735,-125.5721 278.5417,-131.8111 312.5877,-135.1726"/>
<polygon fill="#000000" stroke="#000000" points="312.5698,-138.6859 322.8507,-136.1261 313.2174,-131.7159 312.5698,-138.6859"/>
<text text-anchor="middle" x="251.7542" y="-137.2404" font-family="Times,serif" font-size="14.00" fill="#000000">START,CHANGE</text>
</g>
<!-- PRESENTING&#45;&gt;EDITING -->
<g id="edge4" class="edge">
<title>PRESENTING&#45;&gt;EDITING</title>
<path fill="none" stroke="#000000" d="M191.1844,-71.1893C226.9099,-73.828 268.9008,-79.9134 304.8275,-93.2404 314.587,-96.8607 324.3245,-102.1405 333.2589,-107.839"/>
<polygon fill="#000000" stroke="#000000" points="191.0082,-67.6702 180.7997,-70.505 190.5479,-74.6551 191.0082,-67.6702"/>
<text text-anchor="middle" x="251.7542" y="-97.2404" font-family="Times,serif" font-size="14.00" fill="#000000">CANCEL</text>
</g>
<!-- COMMITING -->
<g id="node4" class="node">
<title>COMMITING</title>
<ellipse fill="none" stroke="#000000" cx="586.1716" cy="-70.0404" rx="67.776" ry="67.776"/>
<text text-anchor="middle" x="586.1716" y="-65.8404" font-family="Times,serif" font-size="14.00" fill="#000000">COMMITING</text>
</g>
<!-- PRESENTING&#45;&gt;COMMITING -->
<g id="edge3" class="edge">
<title>PRESENTING&#45;&gt;COMMITING</title>
<path fill="none" stroke="#000000" d="M180.7735,-66.8077C244.1165,-64.2945 339.8928,-61.5037 423.1855,-63.2404 450.8033,-63.8163 481.0364,-64.9405 507.8826,-66.1116"/>
<polygon fill="#000000" stroke="#000000" points="507.8475,-69.6134 517.9933,-66.5617 508.1589,-62.6203 507.8475,-69.6134"/>
<text text-anchor="middle" x="373.0065" y="-67.2404" font-family="Times,serif" font-size="14.00" fill="#000000">COMMIT</text>
</g>
<!-- PRESENTING&#45;&gt;COMMITING -->
<g id="edge7" class="edge">
<title>PRESENTING&#45;&gt;COMMITING</title>
<path fill="none" stroke="#000000" d="M189.4213,-54.9461C252.6086,-44.7297 343.5772,-34.261 423.1855,-41.2404 455.1021,-44.0386 490.135,-49.8627 519.515,-55.5461"/>
<polygon fill="#000000" stroke="#000000" points="188.8205,-51.4978 179.5247,-56.5808 189.9614,-58.4042 188.8205,-51.4978"/>
<text text-anchor="middle" x="373.0065" y="-45.2404" font-family="Times,serif" font-size="14.00" fill="#000000">SUCCESS</text>
</g>
<!-- EDITING&#45;&gt;EDITING -->
<g id="edge5" class="edge">
<title>EDITING&#45;&gt;EDITING</title>
<path fill="none" stroke="#000000" d="M355.2218,-186.1999C356.3908,-198.206 362.319,-207.2194 373.0065,-207.2194 380.5211,-207.2194 385.6829,-202.7633 388.4917,-195.944"/>
<polygon fill="#000000" stroke="#000000" points="391.9008,-196.7365 390.7911,-186.1999 385.0879,-195.1287 391.9008,-196.7365"/>
<text text-anchor="middle" x="373.0065" y="-211.4194" font-family="Times,serif" font-size="14.00" fill="#000000">CHANGE</text>
</g>
<!-- EDITING&#45;&gt;COMMITING -->
<g id="edge6" class="edge">
<title>EDITING&#45;&gt;COMMITING</title>
<path fill="none" stroke="#000000" d="M422.8111,-132.5655C446.6652,-128.6336 475.3898,-122.6701 500.2837,-114.0404 505.8612,-112.107 511.5304,-109.8722 517.1604,-107.4557"/>
<polygon fill="#000000" stroke="#000000" points="518.8796,-110.5208 526.5751,-103.2385 516.018,-104.1324 518.8796,-110.5208"/>
<text text-anchor="middle" x="470.7346" y="-133.2404" font-family="Times,serif" font-size="14.00" fill="#000000">COMMIT</text>
</g>
<!-- COMMITING&#45;&gt;EDITING -->
<g id="edge8" class="edge">
<title>COMMITING&#45;&gt;EDITING</title>
<path fill="none" stroke="#000000" d="M518.1598,-74.7846C493.3101,-78.0966 465.3789,-83.7146 441.1855,-93.2404 434.5266,-95.8623 427.8583,-99.2164 421.4401,-102.9149"/>
<polygon fill="#000000" stroke="#000000" points="419.588,-99.9448 412.8674,-108.1353 423.2288,-105.9235 419.588,-99.9448"/>
<text text-anchor="middle" x="470.7346" y="-97.2404" font-family="Times,serif" font-size="14.00" fill="#000000">FAILURE</text>
</g>
</g>
</svg>